<?xml version="1.0" standalone="no"?>
<!DOCTYPE svg PUBLIC "-//W3C//DTD SVG 20010904//EN"
 "http://www.w3.org/TR/2001/REC-SVG-20010904/DTD/svg10.dtd">
<svg version="1.0" xmlns="http://www.w3.org/2000/svg"
 width="512.000000pt" height="512.000000pt" viewBox="0 0 512.000000 512.000000"
 preserveAspectRatio="xMidYMid meet">
<metadata>
Created by potrace 1.14, written by Peter Selinger 2001-2017
</metadata>
<g transform="translate(0.000000,512.000000) scale(0.100000,-0.100000)"
fill="#000000" stroke="none">
<path d="M1641 3999 l-174 -179 28 -213 27 -213 -347 -1210 c-191 -665 -350
-1215 -352 -1221 -4 -10 127 -13 634 -13 l638 0 178 178 177 177 0 73 0 72
100 0 100 0 0 -250 0 -250 663 0 662 0 144 144 143 143 -357 1259 -358 1258
22 201 c12 110 21 206 21 213 0 9 -184 12 -887 11 l-888 0 -174 -180z m1799
24 c0 -15 -7 -82 -16 -148 l-15 -121 324 -1132 325 -1132 -458 0 -457 0 -7 38
c-3 20 -6 128 -6 240 l0 202 -405 0 -405 0 0 -179 c0 -98 -3 -206 -6 -240 l-7
-61 -457 0 -457 0 323 1132 324 1132 -18 143 c-10 79 -16 145 -14 148 3 3 326
5 719 5 l713 0 0 -27z"/>
<path d="M2720 3475 c0 -4 -52 -208 -116 -452 -64 -244 -114 -446 -112 -449 3
-2 111 -3 240 -2 l235 3 -118 448 c-103 394 -129 484 -129 452z"/>
</g>
</svg>
